<svg xmlns="http://www.w3.org/2000/svg" viewBox="868 6022 47.747 47.751"><defs><style>.a{fill:#4267b2;}.b{fill:#fff;}</style></defs><g transform="translate(0 5028.747)"><path class="a" d="M45.094,0H2.653A2.653,2.653,0,0,0,0,2.653V45.094a2.653,2.653,0,0,0,2.653,2.653c.095.027,42.353-.093,42.442,0a2.653,2.653,0,0,0,2.653-2.653V2.653A2.653,2.653,0,0,0,45.094,0Z" transform="translate(868 993.253)"/><path class="b" d="M42.771,51.408V32.946H49l.928-7.228H42.771v-4.6c0-2.089.584-3.515,3.574-3.515h3.793V11.155a51.365,51.365,0,0,0-5.557-.285c-5.5,0-9.284,3.362-9.284,9.53V25.7H29.11v7.228h6.2V51.408Z" transform="translate(858.194 989.591)"/></g></svg>