<svg xmlns="http://www.w3.org/2000/svg" xmlns:xlink="http://www.w3.org/1999/xlink" viewBox="936 6022 47.747 47.748"><defs><style>.a{fill:url(#a);}.b{fill:#fff;}</style><linearGradient id="a" x1="0.5" y1="0.008" x2="0.5" y2="0.998" gradientUnits="objectBoundingBox"><stop offset="0" stop-color="#e09b3d"/><stop offset="0.3" stop-color="#c74c4d"/><stop offset="0.6" stop-color="#c21975"/><stop offset="1" stop-color="#7024c4"/></linearGradient></defs><g transform="translate(-49 5081)"><path class="a" d="M33.523,0h-19.3A14.24,14.24,0,0,0,0,14.224v19.3A14.24,14.24,0,0,0,14.224,47.747h19.3A14.24,14.24,0,0,0,47.747,33.523v-19.3A14.24,14.24,0,0,0,33.523,0Z" transform="translate(1032.747 988.748) rotate(180)"/><path class="b" d="M24.966,0H10.593A10.605,10.605,0,0,0,0,10.593V24.966A10.605,10.605,0,0,0,10.593,35.56H24.966A10.605,10.605,0,0,0,35.56,24.966V10.593A10.606,10.606,0,0,0,24.966,0Zm7.016,24.966a7.016,7.016,0,0,1-7.016,7.016H10.593a7.016,7.016,0,0,1-7.016-7.016V10.593a7.016,7.016,0,0,1,7.016-7.016H24.966a7.016,7.016,0,0,1,7.016,7.016V24.966Z" transform="translate(991 947)"/><path class="b" d="M142.2,133a9.2,9.2,0,1,0,9.2,9.2A9.207,9.207,0,0,0,142.2,133Zm0,14.817a5.62,5.62,0,1,1,5.62-5.62A5.62,5.62,0,0,1,142.2,147.817Z" transform="translate(866.583 822.583)"/><circle class="b" cx="2.204" cy="2.204" r="2.204" transform="translate(1015.791 953.448)"/></g></svg>