<svg xmlns="http://www.w3.org/2000/svg" xmlns:xlink="http://www.w3.org/1999/xlink" viewBox="1079.54 6024 43.128 43.128"><defs><style>.a{fill:url(#a);}.b{fill:#c8daea;}.c{fill:#a9c6d8;}.d{fill:#fff;}</style><linearGradient id="a" x1="0.5" y1="1" x2="0.5" gradientUnits="objectBoundingBox"><stop offset="0" stop-color="#1d93d2"/><stop offset="1" stop-color="#38b0e3"/></linearGradient></defs><g transform="translate(1063.64 6008.1)"><g transform="translate(15.9 15.9)"><circle class="a" cx="21.564" cy="21.564" r="21.564" transform="translate(0 0)"/></g><g transform="translate(30.498 30.543)"><path class="b" d="M95.78,104.528l2.558,7.081s.32.662.662.662,5.437-5.3,5.437-5.3L110.1,96.03l-14.23,6.67Z" transform="translate(-95.78 -96.03)"/></g><g transform="translate(33.389 40.857)"><path class="c" d="M112.1,152.47l-.492,5.214s-.2,1.6,1.394,0,3.129-2.833,3.129-2.833" transform="translate(-111.603 -152.47)"/></g><g transform="translate(24.809 28.088)"><path class="d" d="M70.382,93.8,65.12,92.086s-.629-.256-.428-.833c.042-.121.126-.221.378-.4,1.166-.813,21.582-8.152,21.582-8.152a1.729,1.729,0,0,1,.914-.064.5.5,0,0,1,.338.365,1.679,1.679,0,0,1,.046.464c0,.135-.018.261-.029.457-.126,2.01-3.838,16.981-3.838,16.981a1.216,1.216,0,0,1-1.022.914A1.462,1.462,0,0,1,82,101.41c-1.566-1.347-6.975-4.983-8.171-5.782a.228.228,0,0,1-.1-.161c-.016-.084.075-.183.075-.183s9.421-8.373,9.671-9.252c.02-.068-.053-.1-.152-.073-.627.23-11.473,7.081-12.67,7.836A.561.561,0,0,1,70.382,93.8Z" transform="translate(-64.653 -82.595)"/></g></g></svg>