<svg xmlns="http://www.w3.org/2000/svg" viewBox="799.747 6022 47.874 47.874"><defs><style>.a{fill:#4680c2;}.a,.b{fill-rule:evenodd;}.b{fill:#fff;}</style></defs><g transform="translate(0 5028.873)"><path class="a" d="M87.489,70.9h14.7c13.413,0,16.589,3.176,16.589,16.589v14.7c0,13.413-3.176,16.589-16.589,16.589h-14.7c-13.413,0-16.589-3.176-16.589-16.589v-14.7C70.9,74.076,74.076,70.9,87.489,70.9" transform="translate(728.847 922.227)"/><path class="b" d="M125.85,117.118c.236-.743,0-1.284-1.047-1.284h-3.48a1.541,1.541,0,0,0-1.52.98,29.649,29.649,0,0,1-4.291,7.129c-.811.811-1.182,1.081-1.622,1.081-.236,0-.541-.27-.541-1.014v-6.926c0-.878-.27-1.284-1.014-1.284h-5.473a.838.838,0,0,0-.878.811c0,.845,1.25,1.047,1.385,3.412v5.135c0,1.115-.2,1.318-.642,1.318-1.182,0-4.054-4.358-5.777-9.325-.338-.98-.676-1.351-1.554-1.351H95.882c-1.014,0-1.182.473-1.182.98,0,.912,1.182,5.507,5.507,11.588,2.872,4.156,6.96,6.385,10.642,6.385,2.23,0,2.5-.507,2.5-1.351V130.26c0-1.014.2-1.182.912-1.182.507,0,1.419.27,3.48,2.264,2.365,2.365,2.77,3.446,4.088,3.446h3.48c1.014,0,1.487-.507,1.216-1.487a15.039,15.039,0,0,0-2.939-4.088c-.811-.946-2.027-1.993-2.4-2.5-.507-.676-.372-.946,0-1.554-.034,0,4.223-6.014,4.662-8.041" transform="translate(713.088 892.496)"/></g></svg>