<svg xmlns="http://www.w3.org/2000/svg" viewBox="1004 6026 55.394 39.028"><defs><style>.a{fill:red;}.b{fill:#fff;}</style></defs><g transform="translate(0 5028.361)"><path class="a" d="M62.23,40.106a7.011,7.011,0,0,0-4.91-4.941C53.008,34,35.7,34,35.7,34s-17.311,0-21.654,1.165a6.957,6.957,0,0,0-4.91,4.941C8,44.449,8,53.514,8,53.514s0,9.065,1.165,13.408a7.011,7.011,0,0,0,4.91,4.941C18.386,73.028,35.7,73.028,35.7,73.028s17.311,0,21.654-1.165a6.957,6.957,0,0,0,4.91-4.941c1.133-4.343,1.133-13.408,1.133-13.408S63.394,44.449,62.23,40.106Z" transform="translate(996 963.639)"/><path class="b" d="M78,86.292l14.478-8.246L78,69.8Z" transform="translate(948.032 939.107)"/></g></svg>