<svg xmlns="http://www.w3.org/2000/svg" viewBox="0 0 500 500">
	<g>
		<path d="M45.2 237.4h-9.1l9.1-10v-3.5H30.3v4H39l-9 10v3.5h15.2zM62.3 261.1h-8.8v2.4h5.1l-5.3 5.9v2.1h9v-2.4h-5.4l5.4-5.9zM72 255.9h11.4v-3h-6.8l6.8-7.5v-2.7H72.2v3.1h6.6l-6.8 7.5zM449.3 236.3l-9.9-3.2-3.2-9.9-3.1 9.9-10 3.2 10 3.2 3.1 9.9 3.2-9.9zM468.9 241.4l-1.7-5.3-1.7 5.3-5.3 1.7 5.3 1.7 1.7 5.3 1.7-5.3 5.3-1.7zM451.2 253.8l-2.2 6.9-6.8 2.2 6.8 2.1 2.2 6.9 2.2-6.9 6.8-2.1-6.8-2.2z"/>
		<path d="M426.8 73.2C379.5 26 316.8 0 250 0S120.5 26 73.2 73.2C26 120.5 0 183.2 0 250s26 129.5 73.2 176.8C120.5 474 183.2 500 250 500s129.5-26 176.8-73.2C474 379.5 500 316.8 500 250s-26-129.5-73.2-176.8zM250 498.1C113.2 498.1 1.9 386.8 1.9 250S113.2 1.9 250 1.9 498.1 113.2 498.1 250 386.8 498.1 250 498.1z"/>
		<path d="M157.7 318.4c.1.3.3.4.6.6h.1c11.6 11.5 25.4 20.9 40.7 27.4 0 0 .1 0 .1.1 15.7 6.7 32.9 10.4 51 10.4s35.4-3.7 51.1-10.4h.1c30.8-13.2 55.6-38 68.7-68.8 0-.1 0-.1.1-.1 6.6-15.7 10.4-32.9 10.4-50.9 0-35.7-14.5-68.2-37.9-91.8-.1-.3-.4-.5-.6-.6-11.6-11.6-25.4-20.9-40.7-27.4 0 0-.1 0-.1-.1-15.7-6.6-32.9-10.4-50.9-10.4-35 0-67.8 14-91.9 38-8.5 8.5-15.9 18.2-21.9 29-5.9 4.4-7.4 8-9.8 13.3-.5 1.2-1.1 2.6-1.8 4-3.4 7.2-21.2 17.5-27.5 19.8-2.7 1-4.5 2.5-5.1 4.5-.8 2.6.6 4.7.8 5l.3.4.5.2c4.8 1.9 16.9 1.4 27.1.6-.6 5.1-.9 10.3-.9 15.5-.4 35.7 14.1 68.1 37.5 91.7zm-62.1-111c-.1-.3-.2-.8-.1-1.3.3-.8 1.3-1.5 2.8-2.1 6-2.1 25.4-12.9 29.6-21.7.7-1.5 1.3-2.9 1.9-4.1.1-.3.3-.6.4-1 .3.4.6.8 1.2 1 4.9 1.4 8.3 2.9 10 4.2.3.3.8.4 1.2.4.6 0 1.1-.3 1.5-.7.6-.8.5-2-.3-2.6-2.1-1.7-5.8-3.3-11.3-4.9-.3-.1-.6-.1-1 0 1.5-3.1 3.3-5.4 7.1-8.3l.5-.4.1-.3c5.6-10.1 12.4-19.2 20.2-27.2 5.5 4.5 10 9 13.2 13.5.4.5 1 .8 1.5.8.4 0 .8-.1 1.1-.4.8-.6 1-1.8.4-2.6-3.5-4.6-8-9.3-13.6-13.9 22.9-22.1 53.7-35.2 86.4-35.5.8 4.7.7 9.5-.3 14.8-.2 1 .4 2 1.5 2.2.1 0 .3.1.4.1.9 0 1.7-.6 1.9-1.5 1.1-5.5 1.2-10.6.4-15.5 16.2.3 31.6 3.6 45.8 9.5-2 9.7-6.3 19.4-12.9 29.5-.6.9-.3 2 .5 2.6.3.2.7.3 1 .3.6 0 1.2-.3 1.6-.8 6.8-10.3 11.1-20.2 13.3-30.1 13.7 6.1 26.2 14.7 36.8 25.1-5.1 8.2-12.9 15.8-23.6 23.1-.8.6-1.1 1.7-.5 2.6.4.5 1 .8 1.5.8.4 0 .7-.1 1-.3 10.9-7.4 18.9-15 24.2-23.5 21.5 22.3 34.8 52.4 35.4 85.6-12-1.3-24-1.3-35.9.3-1 .1-1.7 1.1-1.6 2.1.1 1 1.1 1.7 2.1 1.6 11.8-1.5 23.7-1.5 35.5-.2-.2 16.2-3.5 31.6-9.2 45.8-5.5-3.3-12.3-5.4-20.5-6.2-1-.1-2 .6-2 1.7-.1 1 .6 2 1.7 2 7.7.8 14.3 2.8 19.4 5.9-12.7 28.7-35.7 51.9-64.3 64.6-4.1-13.9-8.9-25-14.3-32.9-.6-.8-1.7-1.1-2.6-.5-.8.6-1.1 1.7-.5 2.6 5.3 7.7 10 18.5 13.9 32.3-14.1 5.8-29.5 9.1-45.7 9.5 2-9.8 1.9-19.4-.6-28.5-.3-1-1.3-1.6-2.3-1.3-1 .3-1.6 1.3-1.3 2.3 2.3 8.9 2.4 18.2.4 27.6-16.4-.2-32.1-3.5-46.5-9.5 1.9-6.9 4.7-13.4 8.5-19.4.6-.9.3-2-.6-2.6-.9-.6-2-.3-2.6.6-3.8 6.1-6.8 12.8-8.8 19.9-13.7-6.1-26.2-14.7-36.9-25.1 3.4-5.1 7-8.6 11.2-10.7.9-.5 1.3-1.6.8-2.6-.5-.9-1.6-1.3-2.6-.8-4.6 2.4-8.5 6.1-12.1 11.4-10.3-10.7-18.7-23.1-24.8-36.9 1.7-1.2 3.5-2 5.9-2.2 1-.1 1.9-1 1.8-2-.1-1-1-1.8-2-1.8-3.1.2-5.4 1.2-7.2 2.4-5-12.3-8.1-25.7-9-39.6 6.3 17.1 20.2 24 23.7 25.5l8.9 19.2 1.1.1c1.6.1 3.1.2 4.7.2 2.2 0 4.4-.1 6.5-.4.1.1.1.3.3.4 7.7 11.1 17.6 20.5 29 27.3.4.3.8.3 1.2.3.8 0 1.6-.4 2-1.2.6-1.1.3-2.6-.8-3.2-10.1-6.1-19.4-14.8-26.5-24.6 11.2-2.5 20-8.5 27-16.5l.6.3c3.3 1.3 3.9 1.6 9 6.1.4.3.8.4 1.2.4.5 0 1-.2 1.4-.6.7-.8.6-2-.2-2.6-5.2-4.5-6.3-5.2-9.7-6.5 3.1-4 5.9-8.4 8.3-13 .6.3 1.3.5 1.9.8 6.6 2.7 9.4 3.9 19.3 12.7.4.3.8.4 1.3.4s1-.2 1.4-.6c.7-.8.6-2-.1-2.6-10.4-9.3-13.5-10.5-20.3-13.4l-1.5-.6c6.8-13.7 10.9-29 14.3-41 .7.3 1.3.6 1.9.8 3.3 1.3 3.9 1.6 9 6.1.4.3.8.4 1.2.4.5 0 1-.2 1.4-.6.7-.8.6-2-.2-2.6-5.4-4.7-6.5-5.2-10-6.7-.5-.2-1.2-.4-1.8-.8-.2-.1-.3-.1-.5-.1 1-3.8 2-7.2 2.9-10.1 6.6-20.5 43-8.9 43.4-8.8 1 .3 2-.2 2.4-1.2.3-1-.2-2-1.2-2.4-1.7-.5-40.3-12.8-48.1 11.2-1.2 3.7-2.4 8.1-3.8 13.2-4 14.9-9.6 35.2-19.6 50.9-11.5 17.9-26.4 26.1-45.6 25l-8.2-17.8-.3-.7-.8-.3c-1.2-.4-28.4-10.7-24.7-47.3l.3-2.3-2.4.2c-13.5.9-23.5.9-27.4-.2z"/>
		<path d="M171 231.9c.5-2.2 16.7-25.4 11.6-18.7-6.3 8.2-17.3 15.3-17.8 19.2s4.7 9 4.7 9c2.9-3 .8-6.4 1.5-9.5zM62.3 190.6c-.3 1 .3 2 1.2 2.4.2.1.4.1.6.1.8 0 1.5-.5 1.8-1.3C91.4 111.1 165.3 56.9 250 56.9c84 0 157.8 53.6 183.8 133.4.3 1 1.4 1.5 2.4 1.2 1-.3 1.5-1.4 1.2-2.4-12.7-39.3-37.1-73-70.5-97.6-34.1-25.1-74.4-38.4-116.9-38.4-42.7 0-83.3 13.4-117.5 38.8-32.9 24.7-57.9 59.6-70.2 98.7zM63.8 308.1c-1 .3-1.5 1.3-1.2 2.4 12.7 39.3 37 73.1 70.4 97.9 34.1 25.2 74.5 38.5 117 38.5 42.3 0 82.7-13.2 116.6-38.3 33.3-24.6 57.7-58.2 70.5-97.3.3-1-.2-2-1.2-2.4-1-.3-2 .2-2.4 1.2-26 79.5-99.7 133-183.5 133-84.1 0-158-53.8-183.8-133.8-.3-.9-1.4-1.5-2.4-1.2z"/>
		<path d="M247.4 442.9c-3.7-48.7-34.8-81.7-92.5-98.4-25.8-7.5-54-10.7-79.4-12 .6 1.2 1.1 2.3 1.7 3.5 24.7 1.3 51.9 4.6 76.8 11.8 56.1 16.2 86.3 48.2 90 95.1 1.2-.1 2.4 0 3.4 0z"/>
		<path d="M242.3 442.8c-6.8-41.3-34.8-69.8-83.5-84.8-25.2-7.8-52.3-10.9-76.3-12.1.6 1 1.2 2 1.8 3.1 23.4 1.3 49.4 4.4 73.7 12 47.3 14.5 74.6 42 81.4 81.8.9-.2 1.9-.1 2.9 0z"/>
		<path d="M236.1 442.4c-18.2-66.9-91.4-80.7-145.3-83.4.6.9 1.2 1.8 1.9 2.6 52.7 3 122.8 16.9 140.8 80.6.8.1 1.7.1 2.6.2z"/>
		<path d="M228.5 441.8c-10.8-26.9-31.5-46.2-62-57.6-22-8.2-46-11.2-66-12.2.6.8 1.2 1.5 1.9 2.2 43.2 2.4 101.7 13.8 123.8 67.3.7.1 1.5.1 2.3.3z"/>
		<path d="M219.2 440.5c-10.2-18.8-25.2-32.9-44.7-42-20.2-9.5-42.6-12.7-62.5-13.7.6.6 1.2 1.3 1.9 1.9 39.6 2.3 80.9 13.1 103.3 53.5.6 0 1.3.1 2 .3z"/>
		<path d="M208.2 438.4c-7.3-10.8-15.9-19.3-25.6-25.6-14.8-9.5-32.5-14.2-56.6-15.1.6.4 1.1 1 1.7 1.4 32.5 1.5 59.2 10.5 78.9 38.9.4.1.9.2 1.6.4z"/>
		<path d="M143 410.5c.5.3 1 .6 1.5 1 25.6.7 39.6 7.2 51.7 23.8.5.1 1 .3 1.5.4-2.3-3.3-4.7-6.1-7.2-8.6-11-11.2-25-16-47.5-16.6zM71.4 322.8c12 .6 24.5 1.7 37 3.4 50.4 6.8 87.7 21.6 110.9 44.1 17.3 16.9 26.9 38.3 28.7 63.9-.2 2.8-.3 5.7-.3 8.6H252.1c0-2.9-.1-5.8-.3-8.6 1.7-25.6 11.4-47.1 28.7-63.9 23.1-22.5 60.4-37.3 110.9-44.1 12.7-1.7 25.3-2.7 37.5-3.5.5-1.3 1-2.6 1.5-3.8-12.9.6-26.2 1.8-39.6 3.6-51.3 6.9-89.3 22.1-113 45.1-14.6 14.3-24 31.6-27.9 52-4-20.3-13.3-37.7-27.9-52-23.7-23.1-61.8-38.3-113-45.1-13.1-1.8-26.3-2.9-38.9-3.5.2 1.3.7 2.6 1.3 3.8z"/>
		<path d="M424.5 332.4c-25.5 1.3-54 4.5-80 12-57.7 16.7-88.7 49.7-92.5 98.4 1.2 0 2.2 0 3.4-.1 3.7-46.9 34-79 90-95.1 25.1-7.3 52.6-10.5 77.4-11.8.5-1.1 1.1-2.2 1.7-3.4z"/>
		<path d="M417.5 345.7c-24.2 1.2-51.5 4.3-76.9 12.2-48.6 15-76.6 43.6-83.5 84.8 1-.1 2-.1 3-.1 6.8-39.8 34.1-67.3 81.3-81.9 24.4-7.5 50.7-10.7 74.2-12 .8-.9 1.3-2 1.9-3z"/>
		<path d="M409.3 358.9c-54 2.7-127.7 16.3-145.9 83.6.9-.1 1.8-.1 2.7-.2 18-64.1 88.4-77.8 141.3-80.7.7-.9 1.2-1.8 1.9-2.7z"/>
		<path d="M399.6 371.9c-20.1 1-44.4 4-66.7 12.3-30.5 11.4-51.2 30.7-62 57.7l2.4-.3c22.3-53.8 81.2-65.1 124.4-67.5.6-.8 1.2-1.5 1.9-2.2z"/>
		<path d="M388 384.8c-20 1-42.7 4.1-63.1 13.7-19.6 9.2-34.5 23.3-44.8 42.1.7-.1 1.4-.3 2-.3 22.5-40.7 64.2-51.4 104-53.6l1.9-1.9z"/>
		<path d="M374.2 397.6c-24.5.8-42.4 5.6-57.3 15.2-9.8 6.3-18.4 14.8-25.8 25.8.6-.1 1.2-.3 1.8-.4 19.8-28.8 46.8-37.7 79.6-39.1.6-.6 1.2-1 1.7-1.5z"/>
		<path d="M303.1 435.5c12.2-16.9 26.3-23.3 52.4-24 .5-.3 1-.6 1.5-1-22.9.4-36.9 5.2-48 16.5-2.6 2.6-5 5.5-7.3 8.8.4 0 .9-.1 1.4-.3zM45.1 338.6l-2.7-.3-8.9 3.7-1.1-2.6 8.9-3.7 1.7-2.2-13 .1-1.2-2.7 15.9-.3 7.8-9.4 1.1 2.6L45 334l10.9-4.5 1.1 2.6-10.9 4.5 13.2 1.2 1.1 2.6-12.1-1.1-11.4 11.1-1.2-2.7 9.4-9.1zM48.2 359.7c-3.8 1-6.2.8-8.2-3.3l2.2-1.2c1 2 2 2.6 4 2l1.8-.2 13.9-14.1 1.3 2.5-6.6 6.5-4.9 4.6 6.4-1.7 9-2.2 1.4 2.6-20.3 4.5zM73.3 362.9c2.2 3.4 1.1 6.1-2.2 8.2l-2.6 1.7c-3.5 2.2-6.3 1.7-8.4-1.7l-1.3-2.1-8.5 5.4-1.5-2.4 21.6-13.7 2.9 4.6zm-11.1 6.7c1.2 1.8 2.5 2.1 4.6.8l2.9-1.9c2-1.3 2.5-2.6 1.4-4.3l-1.5-2.3-8.8 5.6 1.4 2.1zM68.9 381.5l-9.2 6.9-1.7-2.3 20.5-15.3 1.7 2.3-9.3 6.9 3.8 5.1 9.2-6.9 1.7 2.3-20.5 15.3-1.7-2.3 9.2-6.9-3.7-5.1zM74.9 399.4l-4.5 2.7-1.7-2 22.5-13.2 2.7 3.1-16 20.6-1.9-2.2 3.2-4.2-4.3-4.8zm2.1-1.3l3.8 4.3 9.2-12-13 7.7zM101.7 401.9l-12 11.6c-2.9 2.8-5.3 3.7-8.2 1l-.3-.3 1.8-1.9c1.7 1.7 2.8 1.1 4.6-.6l14-13.5 7.5 7.2-17.8 18.4-2-2 16-16.6-3.6-3.3zM114.3 418c2.4-3.1 5.4-4 8.6-1.5s3.1 5.6.8 8.7l-8.1 10.5c-2.4 3.1-5.4 4-8.6 1.5-3.1-2.4-3.1-5.6-.7-8.7l8-10.5zm-5.9 12.4c-1.4 1.9-1.5 3.5.2 4.8 1.7 1.3 3.3.8 4.7-1.1l8.2-10.7c1.4-1.9 1.5-3.5-.2-4.8-1.6-1.2-3.3-.8-4.7 1.1l-8.2 10.7zM133.3 441.5l-2.6 1.4-4.4 7.4-2.4-1.5 13.2-21.9 2.4 1.5-6.4 10.6 12.2-7.1 2.5 1.5-11.6 6.6-1.4 15.4-2.5-1.5 1-12.4zM147.4 449l-5.1 10.3-2.6-1.3 11.4-23 2.6 1.3-5.1 10.3 5.6 2.8 5.1-10.3 2.6 1.3-11.4 23-2.6-1.3 5.1-10.3-5.6-2.8zM167 457.5l-7.9 9.5-2.7-1.1 9.6-23.7 2.4 1-7.2 17.6 4.7-5.7 8.3-9.7 2.9 1.2-9.6 23.7-2.4-1 7.6-18.9-5.7 7.1zM183.2 451.5l-7 21.9-2.7-.8 7.8-24.4 9.7 3.1-.8 2.5-7-2.3zM193.2 473l-2.2 4.8-2.6-.6 10.7-23.8 4 1-1.2 26-2.7-.6.3-5.2-6.3-1.6zm.9-2.3l5.6 1.3.6-15-6.2 13.7zM215.6 471.5l-5.9 10.3-2.7-.4 7.1-12.3-2.9-13 2.9.4 2.4 10.7 5.5-9.5 2.6.4-6.6 11.5 3.1 13.8-2.9-.4-2.6-11.5zM242.2 473.3L238 485l-2.9-.1 1-25.6 2.5.1-.8 19.1 2.6-7 4.5-11.9 3.2.1-1 25.6-2.6-.1.8-20.4-3.1 8.5zM265.7 484.8l-1.7-23-4.7.3-.2-2.6 12.3-.9.2 2.6-4.7.3 1.7 23-2.9.3zM285.7 468.2l.4 2.6-6.2.9 1.3 9 7.6-1.1.4 2.6-10.4 1.5-3.6-25.3 10.4-1.5.4 2.6-7.6 1.1 1.3 8.6 6-1zM298.8 468.9l-1.8 11.7-2.6.6 2.2-14-7.4-11.1 2.9-.6 6.1 9.1 1.7-10.9 2.6-.6-2 13.2 7.9 11.8-2.9.6-6.7-9.8zM314.8 476.2l-1 .3-1-3.4 2.6-.8.9 3.1-.4 3.7-1.2.3v-3.2zM330.2 459.4l-.4 2.9 3.1 8-2.7 1-9.3-23.8 2.7-1 4.5 11.5 1.8-14 2.7-1.1-1.8 13.2 11.3 10.5-2.7 1.1-9.2-8.3zM350.7 462.7l-10-20.7-4.2 2-1.2-2.4 11.1-5.3 1.2 2.4-4.2 2 10 20.7-2.7 1.3zM352.5 440.1c-2-3.4-1.5-6.5 1.9-8.5 3.5-2 6.4-.8 8.3 2.6l6.6 11.5c1.9 3.4 1.5 6.5-1.9 8.5s-6.3.7-8.3-2.7l-6.6-11.4zm9.1 10.2c1.2 2 2.7 2.7 4.5 1.7 1.8-1 2-2.7.8-4.7l-6.8-11.7c-1.2-2-2.7-2.7-4.5-1.7-1.8 1-1.9 2.7-.8 4.7l6.8 11.7zM382.9 429.6l4 11.8-2.4 1.7-15.2-20.7 2-1.5 11.3 15.4-2.4-7-3.8-12.1 2.6-1.9 15.2 20.7-2 1.5-12.1-16.5 2.8 8.6zM396.8 419.5l4 11.1-2 1.8-4.7-13.4-11.8-6.2 2.2-1.9 9.7 5.2-3.7-10.4 2-1.7 4.5 12.5 12.5 6.6-2.2 2-10.5-5.6zM417.3 398.9c.4 1.5-.2 3.2-1.2 4.3-2.3 2.6-5.4 2-7.9-.4l-7.5-6.9 1.9-2.1 7.4 6.8c1.6 1.5 3.5 1.7 4.9.2 1.2-1.3 1.1-2.7-.1-4.3l-7.9-7.2 1.9-2 18.9 17.3-1.9 2-8.5-7.7zM426.5 387.1l7 10.2-1.9 2.3-20.1-15.8 1.5-2 15 11.8-4.2-6.1-7-10.7 2-2.5 20.1 15.8-1.6 2-16-12.5 5.2 7.5zM444.9 381.8L425.8 369l-2.6 3.9-2.2-1.5 6.8-10.2 2.2 1.5-2.6 3.9 19.1 12.8-1.6 2.4zM449 365.7l4 3.4-1.3 2.3-19.9-16.8 2-3.6 24.7 8.3-1.4 2.5-5-1.7-3.1 5.6zm-1.9-1.5l2.8-5-14.3-4.7 11.5 9.7zM452 340l2.3 1.1-2.6 5.7 8.2 3.8 3.3-7 2.4 1.1-4.5 9.5-23.2-10.9 4.5-9.5 2.4 1.1-3.3 7 7.9 3.7 2.6-5.6zM469.2 335.5l-21.5-8.2-1.7 4.4-2.4-1 4.4-11.5 2.4 1-1.7 4.4 21.5 8.2-1 2.7z"/>
		<g>
			<path d="M57.9 142l1.6 2.9 8.3 4.7-1.6 2.7-24.7-14.2 1.6-2.7 12 6.8-8.2-13.4 1.6-2.8 7.7 12.7 17.1 1.3-1.6 2.8-13.8-.8zM70.2 107c-3.3-2.8-4.1-6.3-1.3-9.6 2.8-3.4 6.4-3.2 9.7-.4l11.3 9.5c3.3 2.8 4.1 6.3 1.3 9.7-2.8 3.3-6.4 3.1-9.7.4L70.2 107zm13.4 7.3c2 1.7 3.8 1.8 5.3.1 1.5-1.8 1-3.6-1-5.2l-11.5-9.7c-2-1.7-3.8-1.9-5.3-.1-1.5 1.7-1 3.6 1 5.2l11.5 9.7zM115.7 91.2L99.4 71.5l-4 3.4-1.9-2.2 10.5-8.8 1.9 2.2-4 3.4 16.4 19.7-2.6 2zM165.9 41.6c4.1-1.7 7-.6 8.8 3.6l1.2 2.9c1.7 4.1.6 7.2-3.5 8.9l-6.1 2.5-10.7-26.4 11.1-4.5 1.1 2.7-8.2 3.3 3.3 8.2 3-1.2zm5.4 12.7c2.2-.9 2.7-2.4 1.7-4.8l-1.3-3.3c-1-2.6-2.5-2.9-4.7-2l-3.1 1.3 4.1 10.2 3.3-1.4zM202 18.4c4.4-.9 6.8 1.3 7.7 5.5l.7 3.3c.9 4.4-.6 7.2-5.1 8.1l-2.7.6 2.3 11-3.1.6-5.8-27.9 6-1.2zm2.7 14.1c2.3-.5 3.2-1.8 2.6-4.5l-.8-3.7c-.5-2.6-1.7-3.6-4-3.1l-3 .6 2.4 11.3 2.8-.6zM236.7 20.7c-.1-4.3 2-7.2 6.3-7.4 4.4-.1 6.6 2.6 6.8 7l.4 14.7c.1 4.3-2 7.2-6.3 7.4-4.3.1-6.6-2.7-6.7-7l-.5-14.7zm3.5 14.8c.1 2.6 1.2 4.1 3.5 4s3.3-1.6 3.3-4.2l-.4-15.1c-.1-2.6-1.2-4.1-3.5-4-2.3.1-3.3 1.7-3.3 4.2l.4 15.1zM287.7 49.4l.6-3.8-11.5-1.8-.6 3.8-3-.4 1-6.6 1.8.3c1.2-1 1.5-2.2 1.9-3.9l4.5-21.1 11.3 1.8-4 25.4 2.1.3-1 6.6-3.1-.6zM281 37.3c-.4 2-.9 3.1-1.9 4l7.4 1.2 3.6-22.5-5.2-.8-3.9 18.1zM333.6 36l-.9 2.4-2.8-1 .9-2.6c.9-2.4.4-4.2-1.8-5-2.2-.8-3.6.3-4.5 2.7l-5.1 14.2c-.9 2.4-.4 4.2 1.8 5 2.2.8 3.6-.3 4.5-2.7l1.3-3.5 2.8 1-1.2 3.3c-1.5 4.1-4.3 6.1-8.5 4.6-4.1-1.5-5.1-4.9-3.6-8.9l5-13.9c1.5-4.1 4.3-6.1 8.4-4.6 4.2 1.6 5.1 5 3.7 9zM358.5 58.2l-2.9 1.6-4.8 8.3-2.7-1.6 14.3-24.7 2.7 1.6-6.9 11.9 13.4-8.1 2.8 1.6-12.7 7.7-1.3 17.1-2.8-1.6.9-13.8zM393.5 70.7c2.8-3.3 6.3-4.1 9.6-1.2 3.3 2.9 3.2 6.4.4 9.7L394 90.5c-2.8 3.3-6.3 4.1-9.7 1.2-3.3-2.8-3.1-6.4-.3-9.7l9.5-11.3zM386.3 84c-1.7 2-1.9 3.8-.1 5.3 1.8 1.5 3.6 1 5.2-1l9.8-11.5c1.7-2 1.9-3.8.1-5.3-1.7-1.5-3.6-1-5.2 1L386.3 84zM428.2 98.9l-19.7 16.4-2-2.4 21.9-18.2 7.2 8.8-2.2 1.9-5.2-6.5zM446.2 130.6c3.8-2.2 7.3-1.7 9.5 2.1s.8 7.1-3 9.3l-12.8 7.3c-3.8 2.1-7.3 1.7-9.5-2.1s-.8-7.1 3-9.2l12.8-7.4zm-11.4 10.1c-2.2 1.3-3 3-1.9 5 1.2 2 3 2.2 5.2.9l13.1-7.5c2.2-1.3 3.1-2.9 1.9-5-1.2-2-3-2.2-5.2-.9l-13.1 7.5z"/>
		</g>
	</g>
</svg>
